# xmcd CD database file
#
# Track frame offsets:
#	150
#	15433
#	29943
#	41639
#	54194
#	66780
#	81071
#	94314
#	110489
#	123727
#	138795
#	154755
#	173505
#	188283
#	203580
#	221643
#	243672
#
# Disc length: 3532 seconds
#
# Revision: 1
# Processed by: cddbd v1.5.2PL0 Copyright (c) Steve Scherf et al.
# Submitted via: CDex 1.51
#
DISCID=e20dca11
DTITLE=Eddy Mitchell - Talents
DYEAR=1900
DGENRE=Blues
TTITLE0=Toujours un con qui me rappelle
TTITLE1=Et s'il n'en reste qu'un
TTITLE2=Société anonyme
TTITLE3=Alice
TTITLE4=C'est facile
TTITLE5=Dieu bénisse le rock'n roll
TTITLE6=Sur la route de Memphis
TTITLE7=La dernière séance
TTITLE8=Il ne reste pas ce soir
TTITLE9=Tu peux préparer le café noir
TTITLE10=Couleur menthe à l'eau
TTITLE11=Le cimetière des éléphants
TTITLE12=Nashville ou Belleville
TTITLE13=Le blues du blanc
TTITLE14=M'Man
TTITLE15=Rio Grande
TTITLE16=Un portrait de Norman Rockwell
EXTD=
EXTT0=
EXTT1=
EXTT2=
EXTT3=
EXTT4=
EXTT5=
EXTT6=
EXTT7=
EXTT8=
EXTT9=
EXTT10=
EXTT11=
EXTT12=
EXTT13=
EXTT14=
EXTT15=
EXTT16=
PLAYORDER=
